<svg xmlns="http://www.w3.org/2000/svg" width="252.226" height="120.207" viewBox="0 0 252.226 120.207">
  <g id="Group_58" data-name="Group 58" transform="translate(-603.236 665.707) rotate(180)">
    <path id="Path_57" data-name="Path 57" d="M-694.38,647.2-608.7,548H-850l85.681,99.2A46.207,46.207,0,0,0-694.38,647.2Z"/>
    <path id="Path_58" data-name="Path 58" d="M-729.35,665.707a48.667,48.667,0,0,1-36.861-16.87L-855.462,545.5h252.226l-89.252,103.337A48.668,48.668,0,0,1-729.35,665.707ZM-844.538,550.5l82.111,95.069a43.675,43.675,0,0,0,33.077,15.138,43.675,43.675,0,0,0,33.078-15.138l82.111-95.069Z"/>
  </g>
</svg>
